# xmcd
# 
# Track frame offsets:
#     150
#     11264
#     26214
#     37712
#     47973
#     60558
#     72511
#     86781
#     100457
#     116497
#     129398
#     141301
#     152077
#     164716
#     175018
#     183992
#     195858
#     208562
#     219497
#     228720
#     238186
#     251000
#     261450
#     272693
#     283713
#     293325
#     302813
#     313717
#     325910
#     335825
# 
# Disc length: 4641
# 
# Revision: 0
# Processed by: cddbd v1.5.2PL0 Copyright (c) Steve Scherf et al.
# Submitted via: fre:ac v1.0.17
# 
DISCID=c5121f1e
DTITLE=Norma Jean - I Guess That Comes From Being Poor 
DYEAR=2007
DGENRE=Country
TTITLE0=I Guess That Comes From Being Poor 
TTITLE1=Hungry Eyes 
TTITLE2=One's On The Way
TTITLE3=Life Of A Poor Boy 
TTITLE4=Hundred Dollar Funeral 
TTITLE5=The Lord Must Have Loved The Poor Folks 
TTITLE6=There Wont Be Any Patches In Heaven 
TTITLE7=Po Folks 
TTITLE8=Old Doc Brown 
TTITLE9=Coat Of Many Colors
TTITLE10=In The Park After Dark
TTITLE11=Truck Driving Woman 
TTITLE12=Woman Hungry 
TTITLE13=Ramblin Man 
TTITLE14=A Dime At A Time 
TTITLE15=All Of Me Belongs To You
TTITLE16=Once More I'll Let You In 
TTITLE17=Promises, Promises 
TTITLE18=Body And Mind
TTITLE19=Tippy Toeing 
TTITLE20=I Threw Away The Rose
TTITLE21=Yesterday All Day Long Today 
TTITLE22=Another Man Loved Me Last Night
TTITLE23=Long Ago Is Gone 
TTITLE24=Somebody's Gonna Plow Your Field
TTITLE25=I Wish I Didn't Have To Miss You 
TTITLE26=You Wouldn't Know Love
TTITLE27=Your At Your Best (When You Lie) 
TTITLE28=All I've Got Left 
TTITLE29=Home Made Love 
EXTD=
EXTT0=
EXTT1=
EXTT2=
EXTT3=
EXTT4=
EXTT5=
EXTT6=
EXTT7=
EXTT8=
EXTT9=
EXTT10=
EXTT11=
EXTT12=
EXTT13=
EXTT14=
EXTT15=
EXTT16=
EXTT17=
EXTT18=
EXTT19=
EXTT20=
EXTT21=
EXTT22=
EXTT23=
EXTT24=
EXTT25=
EXTT26=
EXTT27=
EXTT28=
EXTT29=
PLAYORDER=
